<svg xmlns="http://www.w3.org/2000/svg" viewBox="0 0 1728 1377" fill="none">
  <g stroke="#222">
    <path d="M1193.47 894.1c18.08 23.3 31.31 60.99 6.96 85.04-32.25 31.78-80.5 31.96-88.47 86.82-7.58 62.12 32.01 116.36 48.13 173.99 25.94 73.52-14.77 155.94-99.25 152.13-78.04-1.6-135.98-60.25-201.9-93.96-63.52-34.18-135.12-60.77-182.42-117.71-43.72-55.61-58.77-138.04-31.19-203.94 29.62-66.82 111.13-56.53 171.5-55.29 70.79 1.74 138.03-37.62 169.05-101.67 18.48-39.06 38.81-86.76 87.93-50.02 31.88 24.96 58.05 56.21 86.28 85.04 11.52 12.3 23.24 24.49 33.3 39.58Z"/>
    <path d="M824.24 345.72c2.6 70.02-25.34 142.97-106.83 141.12-34.26.78-67.62-8-101.66-10.02-136.28 12.49-274.97-83.55-306.91-217.42-7.43-27.2 1.93-60.41 29.18-72.53 99.92-42.83 189 123.16 338.96-4.07 21.62-19.77 39.78-43.23 64.24-59.79 51.23-33.31 126.56-34.17 175.05 4.68 38.05 34.03 38.83 90.11 45.96 137.18 3.33 23.02 5.82 46.14 5.8 70.29Z"/>
    <path d="M1725.53 316.18c51.6 46.7 86.44 111.89 74.22 203.25-5.09 65.74-27.76 134.51-82.79 174.87-56.81 45.09-148.32 51.54-198.96-6.18-36.28-39.98-52.27-93.17-72.45-142.2-51.54-154.22-125.01-338.41-307.23-364.12"/>
    <path d="M1479.49 880.93c28.4-52.39 7.98-111.95-4.78-165.52-11.23-44.35-50.11-83.83-98.52-66.15-51 20.02-86.88 65.19-128.35 99.37-89.45 75.26-18.85 117.55 25.21 189.75 31.39 54.22 74.64 94.75 130.15 39.99 28.77-29.51 56.42-61.13 76.29-97.44Z"/>
    <path d="M629.74 1197.79c-88.46-46.38-201.51-82.07-299.93-49.92-56.63 19.59-74.08 80-101.26 126.91-14.69 24.28-34.72 43.8-25.93 67.78 23.38 37.77 77.33 3.86 109.92-5.73 132.34-51.98 235.62 36.64 327.94-1.35 58.23-33.2 43.08-107.36-10.74-137.64Z"/>
    <path d="M217.69 537.92c21.36-20.32 57.53-37.32 83.91-15.49 34.85 28.88 39.9 76.92 95.29 79.31 62.57 1.3 112.55-43.56 168.28-65.38 70.54-33.21 156.64-.98 161.33 83.46 6.27 77.81-46.28 141.31-73.17 210.3-27.64 66.64-46.86 140.55-98.77 193.32-50.94 49.09-131.42 72.34-199.77 51.54-69.47-22.76-67.44-104.88-72.24-165.09-5.41-70.62-51.27-133.56-118.16-157.99-40.73-14.49-90.2-29.9-58.61-82.49 21.64-34.22 50.05-63.42 75.91-94.39 11.08-12.7 22.03-25.57 36.03-37.11Z"/>
  </g>
</svg>
